<svg xmlns="http://www.w3.org/2000/svg" width="550.49" height="463.28" viewBox="0 0 550.49 463.28">
	<style type="text/css">
		.st0{fill:#FFBF00;}
	</style>
	<path class="st0" d="M28.76,57.52L320.68,57.52C336.6,57.52 349.45,44.67 349.45,28.76C349.45,12.85 336.6,0 320.68,0L28.76,0C12.85,0 0,12.85 0,28.76C0,44.67 12.85,57.52 28.76,57.52M244.18,190.94L28.76,190.94C12.85,190.94 0,203.79 0,219.7C0,235.62 12.85,248.47 28.76,248.47L244.18,248.47C260.1,248.47 272.95,235.62 272.95,219.7C272.95,203.79 260.1,190.94 244.18,190.94M542.23,328.03C531.21,317.01 512.85,317.01 501.83,328.03L463.28,366.58L463.28,28.76C463.28,12.85 450.43,0 434.52,0C418.6,0 405.75,12.85 405.75,28.76L405.75,365.97L367.2,327.42C356.18,316.4 337.82,316.4 326.8,327.42C315.79,338.43 315.79,356.79 326.8,367.81L413.71,454.71C414.93,455.94 416.77,456.55 417.99,457.77C419.83,459 421.05,460.22 422.89,460.83C426.56,462.06 430.23,463.28 433.9,463.28C437.58,463.28 441.25,462.67 444.92,460.83C446.76,460.22 447.98,459 449.82,457.77C451.04,456.55 452.88,455.94 454.1,454.71L542.23,368.42C553.24,357.4 553.24,339.04 542.23,328.03M158.5,410.04C158.5,425.95 145.65,438.8 129.74,438.8L28.76,438.8C12.85,438.8 0,425.95 0,410.04C0,394.12 12.85,381.27 28.76,381.27L129.74,381.27C145.65,381.88 158.5,394.74 158.5,410.04"/>
</svg>